Coordinates
version=1
nRows=9
nColumns=63
inDegrees=yes

Units are S.I. units (second, meters, Newtons, ...)
If the header above contains a line with 'inDegrees', this indicates whether rotational values are in degrees (yes) or radians (no).

endheader
time	pelvis_tilt	pelvis_list	pelvis_rotation	pelvis_tx	pelvis_ty	pelvis_tz	hip_flexion_r	hip_adduction_r	hip_rotation_r	knee_angle_r	knee_angle_r_beta	ankle_angle_r	subtalar_angle_r	mtp_angle_r	hip_flexion_l	hip_adduction_l	hip_rotation_l	knee_angle_l	knee_angle_l_beta	ankle_angle_l	subtalar_angle_l	mtp_angle_l	L5_S1_Flex_Ext	L5_S1_Lat_Bending	L5_S1_axial_rotation	L4_L5_Flex_Ext	L4_L5_Lat_Bending	L4_L5_axial_rotation	L3_L4_Flex_Ext	L3_L4_Lat_Bending	L3_L4_axial_rotation	L2_L3_Flex_Ext	L2_L3_Lat_Bending	L2_L3_axial_rotation	L1_L2_Flex_Ext	L1_L2_Lat_Bending	L1_L2_axial_rotation	L1_T12_Flex_Ext	L1_T12_Lat_Bending	L1_T12_axial_rotation	Abs_r3	Abs_r2	Abs_r1	Abs_t1	Abs_t2	neck_flexion	neck_bending	neck_rotation	arm_flex_r	arm_add_r	arm_rot_r	elbow_flex_r	pro_sup_r	wrist_flex_r	wrist_dev_r	arm_flex_l	arm_add_l	arm_rot_l	elbow_flex_l	pro_sup_l	wrist_flex_l	wrist_dev_l
      5.65454545	      1.41255394	     -0.65710734	     96.73685210	      0.12848880	      1.01011602	      0.18360828	      4.99435045	     -1.95471123	     -6.77029014	      7.05292764	      0.12309681	     17.24874450	      4.16900713	      0.00000000	     10.53678104	     -0.12038019	     -7.40663937	     19.55375209	      0.34127736	     19.60738662	      8.95907902	      0.00000000	      0.31627800	     -0.22054049	      0.45705638	      0.58735988	     -0.29331885	      0.48562241	      0.51961313	     -0.53622215	      0.48562241	      0.36147413	     -0.53622215	      0.39992434	      0.29369575	     -0.44972617	      0.37135831	      0.18072125	     -0.34161722	      0.34279229	      2.25914216	     -2.49479814	      2.54201048	      0.00000000	      0.00000000	     19.40953164	     -2.25062716	    -15.48837309	      9.21608223	    -14.27822640	     52.19788144	     57.86845892	     54.43885874	     10.70831220	      9.75284011	     23.83414355	    -17.32474108	     84.88286149	     58.87219158	     50.40878606	     -3.96535335	     -8.99791206
      5.67272727	      1.41938283	     -0.78637005	     96.75651995	      0.12860978	      1.00978495	      0.18344727	      5.17754867	     -1.94585650	     -6.75051462	      7.12208907	      0.12430390	     17.31986220	      4.18524082	      0.00000000	     10.68489375	     -0.13069677	     -7.42556601	     19.58668876	      0.34185221	     19.69136073	      8.95391501	      0.00000000	      0.33705908	     -0.22271596	      0.43483020	      0.62595241	     -0.29621223	      0.46200709	      0.55375436	     -0.54151159	      0.46200709	      0.38522482	     -0.54151159	      0.38047642	      0.31299306	     -0.45416239	      0.35329954	      0.19259556	     -0.34498703	      0.32612265	      2.40757927	     -2.51940751	      2.41839512	      0.00000000	      0.00000000	     19.57197992	     -2.26371015	    -15.44382738	      9.22842314	    -14.21087350	     52.31442447	     57.84762313	     54.37686491	     10.57025770	      9.82347900	     23.75783653	    -17.44523513	     84.89641303	     58.95888302	     50.36185169	     -3.93305001	     -8.95530463
      5.69090909	      1.41436305	     -0.71976610	     97.03973433	      0.12851125	      1.00991436	      0.18317061	      4.90716729	     -1.85791653	     -6.32120687	      6.69139677	      0.11678691	     16.84457950	      3.34484764	      0.00000000	     10.58705054	     -0.11906581	     -7.33801534	     19.47993771	      0.33998905	     19.58956022	      9.04489652	      0.00000000	      0.33432762	     -0.22043316	      0.22902616	      0.62087982	     -0.29317610	      0.24334029	      0.54926685	     -0.53596118	      0.24334029	      0.38210304	     -0.53596118	      0.20039789	      0.31045663	     -0.44950729	      0.18608375	      0.19103480	     -0.34145096	      0.17176962	      2.38806876	     -2.49358396	      1.27377478	      0.00000000	      0.00000000	     19.40561896	     -1.89044820	    -14.44684777	     10.02806983	    -13.97896864	     53.83367448	     57.43593395	     54.59406422	     10.59426285	      9.86475651	     22.92926419	    -18.07868748	     83.45108482	     59.35153557	     50.27792572	     -3.32522262	     -8.95057024
      5.70909091	      1.33321205	     -0.78187889	     97.00126075	      0.12868820	      1.00980829	      0.18292137	      4.92121575	     -1.92296203	     -6.31510612	      6.52160041	      0.11382340	     16.83475584	      3.68265033	      0.00000000	     10.59251852	     -0.03011397	     -7.33165012	     19.39551246	      0.33851555	     19.42296944	      9.01590986	      0.00000000	      0.34900717	     -0.22512321	      0.14113819	      0.64814121	     -0.29941386	      0.14995933	      0.57338388	     -0.54736456	      0.14995933	      0.39888029	     -0.54736456	      0.12349592	      0.32408806	     -0.45907124	      0.11467478	      0.19942270	     -0.34871585	      0.10585364	      2.49292330	     -2.54663873	      0.78496827	      0.00000000	      0.00000000	     19.36486651	     -1.65154276	    -13.70777898	     10.48255522	    -13.87337778	     54.86517599	     57.31511209	     55.11644275	     10.43492017	      9.79649432	     22.51015957	    -18.47552876	     82.76335392	     59.62638856	     50.15387385	     -2.77354849	     -8.76154046
      5.72727273	      1.29022343	     -0.82419308	     96.96100127	      0.12871445	      1.00978670	      0.18270407	      4.98279401	     -1.96691997	     -6.36252845	      6.50169487	      0.11347598	     16.97022015	      4.08955994	      0.00000000	     10.55934231	      0.08339338	     -6.87983597	     19.25847173	      0.33612374	     19.11097761	      8.55070336	      0.00000000	      0.36363523	     -0.21581798	      0.03140927	      0.67530699	     -0.28703792	      0.03337235	      0.59741632	     -0.52473984	      0.03337235	      0.41559871	     -0.52473984	      0.02748311	      0.33767168	     -0.44009603	      0.02552003	      0.20778117	     -0.33430206	      0.02355696	      2.59741010	     -2.44137619	      0.17468896	      0.00000000	      0.00000000	     19.45309827	     -1.06083941	    -12.07799936	     11.04815079	    -13.75257379	     55.78251539	     56.86553616	     58.77884596	     11.45755824	      8.57013660	     21.71947425	    -18.76566979	     81.38210790	     59.59847975	     50.39532995	     -1.54058660	     -9.07269710
      5.74545455	      1.32035745	     -0.78883179	     96.94563983	      0.12864893	      1.00984476	      0.18260481	      4.91663172	     -1.90735836	     -6.26730584	      6.34905066	      0.11081184	     17.07982289	      4.23415428	      0.00000000	     10.51939958	      0.12903539	     -6.24411019	     19.24725516	      0.33592797	     18.89338288	      7.89358565	      0.00000000	      0.36425637	     -0.19664684	     -0.01091910	      0.67646051	     -0.26154030	     -0.01160154	      0.59843680	     -0.47812713	     -0.01160154	      0.41630861	     -0.47812713	     -0.00955421	      0.33824847	     -0.40100224	     -0.00887177	      0.20813609	     -0.30460596	     -0.00818932	      2.60184686	     -2.22450839	     -0.06072875	      0.00000000	      0.00000000	     19.53900689	     -0.58472461	    -10.69844196	     11.16702393	    -13.75520372	     55.65865557	     56.72641134	     64.25883139	     12.21317265	      7.09633798	     21.30815788	    -18.77681004	     80.56882107	     59.54055911	     50.03813090	     -0.55384962	     -8.76164873
      5.76363636	      1.31100704	     -0.70032245	     96.94632154	      0.12859059	      1.01008179	      0.18260422	      4.80983435	     -1.90969144	     -6.52830011	      6.25222062	      0.10912184	     17.28623521	      4.84840416	      0.00000000	     10.40462705	      0.16440107	     -5.92958994	     19.17031377	      0.33458509	     18.78884044	      7.75660710	      0.00000000	      0.35407580	     -0.18958193	      0.00346710	      0.65755417	     -0.25214397	      0.00368379	      0.58171113	     -0.46094950	      0.00368379	      0.40467323	     -0.46094950	      0.00303371	      0.32879479	     -0.38659547	      0.00281701	      0.20231891	     -0.29366241	      0.00260032	      2.52912804	     -2.14458871	      0.01928294	      0.00000000	      0.00000000	     19.57886044	     -0.38691812	    -10.45653048	     11.24070363	    -13.91658852	     56.05167953	     56.81949636	     63.62630750	     11.96538918	      6.94426027	     21.18957905	    -18.69119750	     80.32344612	     59.55411503	     49.54497883	     -0.53789607	     -8.38681463
      5.78181818	      1.25477312	     -0.66568236	     96.74524956	      0.12895857	      1.01031193	      0.18280087	      4.86194103	     -1.95038446	     -6.60230834	      6.31414496	      0.11020262	     17.60715564	      5.38957230	      0.00000000	     10.29847634	      0.13959882	     -6.32577909	     19.01235789	      0.33182824	     18.98173074	      8.38054044	      0.00000000	      0.35251821	     -0.18978958	      0.12263604	      0.65466156	     -0.25242014	      0.13030079	      0.57915216	     -0.46145438	      0.13030079	      0.40289306	     -0.46145438	      0.10730653	      0.32734841	     -0.38701890	      0.09964178	      0.20142890	     -0.29398405	      0.09197703	      2.51800229	     -2.14693765	      0.68206485	      0.00000000	      0.00000000	     19.42841298	     -0.46999300	    -10.60905043	     10.90655022	    -13.88710896	     54.80025354	     56.44010351	     69.35006117	     13.59862810	      4.77182322	     21.66730243	    -18.26028847	     81.44491463	     58.73852414	     48.65045460	      0.43386555	     -9.97134931
      5.80000000	      1.23213590	     -0.73682211	     96.84082257	      0.12915826	      1.01027915	      0.18315760	      4.93706899	     -1.94813607	     -6.62392207	      6.24060946	      0.10891918	     17.75177095	      5.38927519	      0.00000000	     10.45613835	      0.15279423	     -6.32259609	     19.08632136	      0.33311915	     19.10864234	      8.39520894	      0.00000000	      0.35934712	     -0.19121600	      0.13883659	      0.66734354	     -0.25431728	      0.14751388	      0.59037139	     -0.46492259	      0.14751388	      0.41069783	     -0.46492259	      0.12148202	      0.33368974	     -0.38992767	      0.11280473	      0.20533095	     -0.29619359	      0.10412744	      2.56678057	     -2.16307365	      0.77216746	      0.00000000	      0.00000000	     19.58229077	     -0.49001676	    -10.55660581	     10.89365018	    -13.92465484	     54.80725428	     56.45718191	     69.28990239	     13.48150798	      4.78765275	     21.64682755	    -18.24291840	     81.43780987	     58.69105259	     48.59452139	      0.38497450	     -9.89919525
